<svg width="538" height="102" viewBox="0 0 538 102" fill="none" xmlns="http://www.w3.org/2000/svg">
<path d="M261.832 51.9159V50.0136C261.832 43.5956 262.154 38.1943 262.784 33.8406C263.412 29.4711 264.492 25.924 266.04 23.1824C267.572 20.4411 269.684 18.3612 272.345 16.9102C275.005 15.4593 278.343 14.4755 282.374 13.9592C286.405 13.4274 291.259 13.1696 296.935 13.1696H315.961C322.459 13.1696 327.926 13.4758 332.392 14.0881C336.842 14.7011 340.438 15.9264 343.147 17.7327C345.872 19.5385 347.855 22.1989 349.081 25.7139C350.306 29.2292 350.919 33.8727 350.919 39.6777H341.857C341.857 35.1143 341.454 31.551 340.632 29.0199C339.809 26.488 338.439 24.6496 336.488 23.521C334.553 22.3924 331.924 21.683 328.587 21.4086C325.249 21.1508 321.04 21.022 315.961 21.022H296.935C292.42 21.022 288.631 21.1508 285.551 21.4086C282.455 21.683 279.955 22.2957 278.004 23.2632C276.07 24.2145 274.586 25.7464 273.57 27.81C272.555 29.8903 271.845 32.7279 271.474 36.3242C271.087 39.9034 270.909 44.4827 270.909 50.0136V51.9159C270.909 57.2692 271.087 61.7037 271.474 65.2349C271.845 68.7499 272.555 71.5716 273.57 73.684C274.586 75.7964 276.07 77.3766 278.004 78.4084C279.955 79.4565 282.455 80.1338 285.551 80.4403C288.631 80.7627 292.42 80.9078 296.935 80.9078H315.961C321.04 80.9078 325.249 80.8111 328.587 80.5855C331.924 80.3594 334.553 79.7146 336.488 78.6503C338.439 77.5701 339.809 75.7964 340.632 73.2812C341.454 70.7814 341.857 67.2664 341.857 62.7196H350.919C350.919 68.5242 350.306 73.1519 349.081 76.6188C347.855 80.0854 345.872 82.6816 343.147 84.4387C340.438 86.1803 336.842 87.3413 332.392 87.9056C327.926 88.4699 322.459 88.7602 315.961 88.7602H296.935C289.84 88.7602 284.019 88.2764 279.456 87.3088C274.892 86.3575 271.313 84.5838 268.749 82.0043C266.185 79.4244 264.395 75.6996 263.364 70.846C262.348 66.0089 261.832 59.6881 261.832 51.9159ZM366.189 87.2446V14.6852H437.409V22.2473H375.25V46.4336H434.814V53.9798H375.25V79.6821H438.748V87.2446H366.189ZM482.912 88.7602C475.817 88.7602 469.997 88.2764 465.434 87.3088C460.87 86.3575 457.291 84.5838 454.727 82.0043C452.163 79.4244 450.373 75.6996 449.341 70.846C448.325 66.0089 447.81 59.6881 447.81 51.9159V50.0136C447.81 43.5956 448.132 38.1943 448.761 33.8406C449.39 29.4711 450.47 25.924 452.018 23.1824C453.55 20.4411 455.662 18.3612 458.323 16.9102C460.983 15.4593 464.321 14.4755 468.352 13.9592C472.383 13.4274 477.237 13.1696 482.912 13.1696H501.939C507.615 13.1696 512.468 13.4274 516.499 13.9592C520.53 14.4755 523.868 15.4593 526.529 16.9102C529.189 18.3612 531.301 20.4411 532.833 23.1824C534.381 25.924 535.478 29.4711 536.106 33.8406C536.735 38.1943 537.042 43.5956 537.042 50.0136V51.9159C537.042 59.6881 536.526 66.0089 535.51 70.846C534.478 75.6996 532.688 79.4244 530.124 82.0043C527.561 84.5838 523.997 86.3575 519.418 87.3088C514.855 88.2764 509.034 88.7602 501.939 88.7602H482.912ZM482.912 80.9078H501.939C506.454 80.9078 510.243 80.7627 513.323 80.4403C516.419 80.1338 518.934 79.4565 520.869 78.4084C522.804 77.3766 524.287 75.7964 525.303 73.684C526.335 71.5716 527.028 68.7499 527.415 65.2349C527.786 61.7037 527.98 57.2692 527.98 51.9159V50.0136C527.98 44.4827 527.786 39.9034 527.415 36.3242C527.028 32.7279 526.335 29.8903 525.303 27.81C524.287 25.7464 522.804 24.2145 520.869 23.2632C518.934 22.2957 516.419 21.683 513.323 21.4086C510.243 21.1508 506.454 21.022 501.939 21.022H482.912C478.398 21.022 474.608 21.1508 471.528 21.4086C468.433 21.683 465.934 22.2957 463.982 23.2632C462.047 24.2145 460.564 25.7464 459.548 27.81C458.532 29.8903 457.823 32.7279 457.452 36.3242C457.065 39.9034 456.888 44.4827 456.888 50.0136V51.9159C456.888 57.2692 457.065 61.7037 457.452 65.2349C457.823 68.7499 458.532 71.5716 459.548 73.684C460.564 75.7964 462.047 77.3766 463.982 78.4084C465.934 79.4565 468.433 80.1338 471.528 80.4403C474.608 80.7627 478.398 80.9078 482.912 80.9078Z" fill="#353536"/>
<path d="M0.120316 87.256L42.4597 14.6743H54.5565L96.8962 87.256H86.2992L77.2348 70.6264H19.7659L10.7011 87.256H0.120316ZM24.3142 63.062H72.7024L48.5081 20.7226L24.3142 63.062Z" fill="#353536"/>
<path d="M135.823 22.2363H108.465V14.6743H135.823V22.2363Z" fill="#353536"/>
<path d="M117.671 87.256V14.6743H126.618V87.256H117.671Z" fill="#353536"/>
<path d="M135.823 87.256H108.465V79.6939H135.823V87.256Z" fill="#353536"/>
<path d="M231.757 101.497H166.086C156.352 101.497 148.389 93.5337 148.389 83.8007V18.1295C148.389 8.39647 156.352 0.433014 166.086 0.433014H231.757C241.49 0.433014 249.453 8.39647 249.453 18.1295V83.8007C249.453 93.5337 241.49 101.497 231.757 101.497Z" fill="#D84040"/>
<path d="M162.517 66.1163L217.505 10.5697V66.1163H162.517Z" fill="white"/>
<path d="M209.147 82.5062L217.505 91.9645V66.1167H209.147V82.5062Z" fill="white"/>
<path d="M225.537 66.1163L234.995 57.7578H209.147V66.1163H225.537Z" fill="white"/>
<path d="M209.147 57.7582H182.809L209.147 32.1315V57.7582Z" fill="#D84040"/>
</svg>
